<svg xmlns:rdf="http://www.w3.org/1999/02/22-rdf-syntax-ns#"
    xmlns="http://www.w3.org/2000/svg"
    version="1.1"
    xmlns:cc="http://creativecommons.org/ns#"
    xmlns:dc="http://purl.org/dc/elements/1.1/"
    height="1607"
    width="2828">
<metadata>
<rdf:RDF>
<cc:Work rdf:about="">
<dc:format>image/svg+xml</dc:format>
<dc:type rdf:resource="http://purl.org/dc/dcmitype/StillImage"/>
<dc:title/>
</cc:Work>
</rdf:RDF>
</metadata>
<path fill="#FFF" d="m2037,1609.4c-0.825-0.2926-2.4-0.9141-3.5-1.381s-4.6757-1.1233-7.9459-1.4586c-21.443-2.1987-45.652-10.429-60.678-20.628-26.904-18.262-35.482-46.795-23.316-77.553,14.41-36.429,55.047-73.105,110.53-99.756,42.72-20.52,90.518-32.927,136.41-35.407l13-0.7025v-505.5c0-474.58-0.1064-506.31-1.74-518.76-6.4939-49.486-20.59-77.994-47.345-95.753-26.364-17.499-73.994-21.012-112.92-8.3259-49.373,16.093-94.152,59.472-119.37,115.64-9.6545,21.504-15.456,42.179-19.418,69.199-2.1245,14.491-2.1262,14.713-2.6758,340l-0.55,325.5-2.2306,8c-10.786,38.685-50.825,78.384-107.81,106.9-74.047,37.049-161.04,48.771-218.7,29.468-66.134-22.141-75.372-78.244-22.048-133.89,48.871-51,136.51-88.203,216.3-91.817l14.5-0.6569v-327.5c0-348.03,0.1858-333.7-4.652-359-9.8966-51.763-36.131-80.203-80.848-87.648-13.75-2.2892-38.338-2.0477-53.022,0.52087-55.141,9.6458-103.45,49.033-134.01,109.26-15.184,29.924-23.3,55.955-28.645,91.869-1.5498,10.414-1.7439,26.968-2.0542,175.25l-0.3426,163.75h-59.448-59.448l-0.265-256.75-0.265-256.75-2.3036-5c-3.0106-6.5346-6.2805-9.834-12.564-12.677-4.9404-2.2357-6.2455-2.3344-34.882-2.6394l-29.75-0.31684v-50.478-50.478l69.25,0.34252c67.986,0.33626,69.405,0.3834,77.726,2.5834,24.431,6.4595,38.13,19.245,45.192,42.18,2.2376,7.2661,2.305,8.6174,2.3183,46.484l0.014,39h2.1589c1.7672,0,3.3404-2.3586,8.6709-13,26.543-52.988,76.584-97.044,135.17-119,12.448-4.6656,33.402-10.02,45.12-11.53,4.8841-0.62934,9.9619-1.6669,11.284-2.3058,3.2703-1.5801,39.894-1.593,43.197-0.0152,1.3198,0.63047,7.0193,1.6391,12.666,2.2414,47.234,5.0383,88.961,25.682,114.1,56.45,16.277,19.921,28.014,43.435,35.727,71.577,1.8853,6.8789,3.825,12.904,4.3104,13.39,2.2657,2.2657,4.8091-0.24332,9.8915-9.7577,33.971-63.594,98.11-112.29,168.63-128.02,6.5577-1.4632,15.783-3.1269,20.5-3.6972,4.7172-0.57026,9.6595-1.5522,10.983-2.1821,3.5114-1.6714,43.563-1.5787,45.245,0.10475,0.6869,0.6875,2.9619,1.25,5.0555,1.25s8.3359,0.68029,13.872,1.5118c65.483,9.8354,109.22,39.118,135.85,90.954,13.068,25.436,21.146,54.254,26.781,95.534,1.5882,11.636,1.727,51.332,2.008,574.49,0.3009,560.33,0.2959,562.01-1.7106,570-12.242,48.744-73.512,99.133-154.01,126.66-25.304,8.6517-56.08,15.65-76.723,17.445-4.2773,0.3721-8.4074,1.1794-9.178,1.7941-1.4424,1.1505-39.151,2.0494-42.099,1.0035zm-1718.5-816.05c-20.63-1.0953-48.989-5.4666-70.441-10.858-108.15-27.18-190.03-101.82-225.6-205.67-8.508-24.84-17.441-67.73-17.456-83.82-0.002-2.5025-0.56658-5.1127-1.2541-5.8005-1.797-1.7976-1.797-52.503,0-54.3,0.6875-0.68731,1.25-3.1434,1.25-5.4579,0-6.7124,2.893-27.592,6.132-44.256,24.307-125.05,110.21-216.46,230.44-245.19,14.702-3.5134,33.064-6.5755,45.039-7.5105,4.8862-0.38151,9.5153-1.1974,10.287-1.813,2.0924-1.6692,48.566-1.5484,50.246,0.13063,0.68783,0.6875,3.0154,1.25,5.1723,1.25,10.326,0,39.405,5.4704,56.678,10.663,88.827,26.7,150.85,94.553,175.36,191.84,10.383,41.212,13.315,79.051,9.5703,123.5-0.53292,6.325-1.2255,13.187-1.539,15.248l-0.57007,3.7479-232.16,0.25211-232.16,0.25212,0.21518,9.5c0.11834,5.225,1.3284,16.025,2.689,24,16.598,97.291,84.918,164.51,182.6,179.65,16.075,2.4923,52.883,2.496,69,0.01,51.732-7.9894,100.12-29.346,141.9-62.627,10.039-7.998,10.072-8.0142,11.533-5.7775,0.80583,1.2336,12.261,20.014,25.456,41.733,22.937,37.756,23.917,39.574,22.303,41.405-3.2512,3.6885-21.629,17.861-33.105,25.53-69.884,46.699-149.21,68.752-231.58,64.379zm153.95-406.22c1.0253-1.659-1.4882-25.335-4.0431-38.083-13.169-65.708-54.546-110-115.41-123.53-10.012-2.2262-44.568-3.1346-57.808-1.5197-23.737,2.8954-45.215,9.3735-65.192,19.663-42.478,21.879-73.175,58.804-89.366,107.49-5.1473,15.48-9.252,32.84-8.3319,35.238,0.58725,1.5304,13.353,1.6545,170.11,1.6545,101.74,0,169.7-0.36668,170.04-0.91749zm371.55,405.84c-65.285-4.9537-114.34-28.472-144.37-69.22-23.185-31.458-35.857-68.541-42.783-125.2-0.89394-7.3122-1.374-53.543-1.7859-172-0.5327-153.18-0.66139-162.22-2.364-166-2.4507-5.4439-7.2951-10.336-12.699-12.824-3.829-1.7627-6.9934-2.1338-21.222-2.4888l-16.722-0.41712-6.1459-11.601c-15.89-30-36.91-57.81-60.2-79.66l-10.207-9.5751,96,0.30516c95.681,0.30414,96.027,0.31254,104,2.528,20.423,5.6748,33.109,15.25,40.377,30.477,8.0875,16.945,7.4196,0.53914,8.1929,201.26,0.37929,98.45,0.95105,180.35,1.2706,182,0.31953,1.65,1.0888,7.5,1.7095,13,4.223,37.421,16.303,65.826,35.426,83.304,19.799,18.095,44.996,26.188,81.524,26.182,25.005,0,43.917-2.9039,65.25-10.006,52.162-17.365,96.391-59.46,120.72-114.9,12.466-28.4,20.379-60.563,22.999-93.477,0.6417-8.0607,1.0265-70.577,1.0265-166.75v-153.85h59.5,59.5v253.36c0,167.51,0.3446,255.19,1.0169,258.75,1.4875,7.8796,5.4467,13.589,11.983,17.28l5.5,3.1061,30.75,0.3151,30.75,0.3152v50.935,50.935h-59.394c-34.362,0-63.759-0.4438-69.75-1.0529-33.945-3.4512-53.152-16.371-62.296-41.903l-3.0599-8.5442-0.1403-39.5-0.1402-39.5h-2.2222c-1.8223,0-3.2909,2.0662-8.1627,11.484-34.604,66.898-104.55,116.87-181.83,129.92-22.817,3.8518-47.399,4.881-72,3.0143zm1724.5,0.074c-73.873-5.8578-142.87-33.826-195.5-79.248l-8.5-7.3357-0.2572-66.446-0.2572-66.446,11.757,11.567c64.121,63.083,135.68,103.1,198.23,110.87,11.025,1.3678,35.111,1.3405,46.526-0.053,38.469-4.6957,68.559-22.68,80.971-48.396,4.5772-9.4831,6.4621-17.118,7.1596-29,1.1469-19.538-4.0724-32.038-20.075-48.08-20.379-20.429-42.679-32.309-118.96-63.371-67.217-27.373-98.855-42.835-127.1-62.116-55.15-37.648-81.517-82.763-81.489-139.43,0.034-68.424,35.523-121.55,100.92-151.08,27.242-12.302,65.072-21.713,96.585-24.028,4.9401-0.36295,9.6134-1.1611,10.385-1.7737,1.9758-1.5683,49.911-1.5352,53.194,0.0367,1.3215,0.63275,8.0277,1.6771,14.903,2.3208,44.671,4.1825,92.132,19.224,120.38,38.153,16.244,10.884,30.492,26.543,37.648,41.376,8.0949,16.78,8.3059,18.261,8.7253,61.25l0.3732,38.25h-52.064c-48.913,0-52.065-0.10591-52.077-1.75-0.01-0.9625-0.6574-9.3251-1.4448-18.584-1.2814-15.067-1.7555-17.526-4.5178-23.428-4.2658-9.116-10.648-16.195-20.525-22.767-19.587-13.033-44.812-19.483-75.999-19.434-49.584,0.0784-86.446,12.972-104.24,36.463-9.0079,11.889-12.638,23.344-12.677,40-0.043,18.699,5.3894,31.223,19.933,45.953,15.994,16.199,45.721,32.622,91.988,50.819,13.2,5.1917,35.25,13.852,49,19.246,73.926,28.999,112.87,51.433,142.56,82.133,23.154,23.939,36.708,50.357,41.48,80.849,0.947,6.05,2.2257,12.082,2.8416,13.405,1.6082,3.4541,1.4992,29.618-0.1302,31.246-0.6875,0.68694-1.25,2.7758-1.25,4.6419,0,5.1372-3.7118,22.28-7.1639,33.087-22.114,69.225-89.128,116.84-181.84,129.21-16.823,2.2435-52.806,3.2309-69.5,1.9071z"/>
</svg>
