<?xml version="1.0" encoding="UTF-8" standalone="no"?>
<!-- Created with Inkscape (http://www.inkscape.org/) -->
<svg xmlns:rdf="http://www.w3.org/1999/02/22-rdf-syntax-ns#" xmlns="http://www.w3.org/2000/svg" height="1607" width="6854" version="1.1" xmlns:cc="http://creativecommons.org/ns#" xmlns:dc="http://purl.org/dc/elements/1.1/">
 <metadata>
  <rdf:RDF>
   <cc:Work rdf:about="">
    <dc:format>image/svg+xml</dc:format>
    <dc:type rdf:resource="http://purl.org/dc/dcmitype/StillImage"/>
    <dc:title/>
   </cc:Work>
  </rdf:RDF>
 </metadata>
 <g style="writing-mode:lr-tb;letter-spacing:6.67000246px;text-anchor:start;word-spacing:0px;text-align:start;" font-weight="normal" font-size="680px" font-stretch="normal" font-variant="normal" font-style="normal" font-family="Trebuchet MS" line-height="125%" fill="#FFF">
  <path d="m560.2,76.597,0,135.14,160.7,0,0,56.445-160.7,0,0,175.31,220.47,0,0,59.766-286.88,0,0-486.43,290.53,0,0,59.766-224.12,0"/>
  <path d="m1084.8,502.93,0-26.23c-21.914,21.914-53.789,32.871-95.625,32.871-44.492-0.00001-80.573-15.937-108.24-47.812-27.669-31.875-41.504-74.375-41.504-127.5-0.00002-53.346,15.937-98.834,47.812-136.46,31.875-37.851,69.837-56.777,113.89-56.777,36.745,0.00036,64.635,8.6332,83.672,25.898v-165.02h63.086v501.04h-63.086m0-272.93c-15.938-23.906-37.741-35.859-65.41-35.859-33.867,0.00031-61.315,12.617-82.344,37.852-20.807,25.235-31.211,57.331-31.211,96.289-0.00009,85.664,38.958,128.5,116.87,128.5,9.9608,0.00004,21.914-3.0989,35.859-9.2969,13.945-6.4192,22.689-13.17,26.23-20.254v-197.23"/>
  <path d="m1309.7,13.179c10.846,0.00049,20.032,3.8742,27.559,11.621,7.7473,7.5265,11.621,16.602,11.621,27.227-0.0001,10.847-3.8738,20.144-11.621,27.891-7.5261,7.5265-16.712,11.289-27.559,11.289-10.625,0.000412-19.811-3.7626-27.559-11.289-7.5261-7.747-11.289-17.044-11.289-27.891-0.0001-10.846,3.7629-20.032,11.289-27.559,7.526-7.5256,16.712-11.289,27.559-11.289m-34.531,490.08,0-302.48-48.809,0,0-53.125,111.89,0,0,355.61-63.086,0"/>
  <path d="m1664,503.26,0-206.86c-0.0002-37.851-5.7554-64.303-17.266-79.355-11.289-15.273-30.326-22.91-57.109-22.91-14.388,0.00031-29.44,4.3167-45.156,12.949-15.716,8.6331-27.78,19.258-36.191,31.875v264.3h-63.086v-355.61h43.164l19.922,45.82c20.807-34.974,54.785-52.461,101.93-52.461,77.916,0.00036,116.87,47.37,116.88,142.11v220.14h-63.086"/>
  <path d="m1877.5,477.69-22.246,32.207-31.543,0,0-508.01,63.086,0,0,171.99c5.9765-8.1898,17.155-15.716,33.535-22.578,16.601-6.8616,32.871-10.293,48.809-10.293,48.698,0.00036,88.099,16.823,118.2,50.469,30.325,33.646,45.488,76.146,45.488,127.5-0.0004,59.323-15.163,106.03-45.488,140.12-30.326,33.867-71.387,50.801-123.18,50.801-16.823-0.00001-33.425-3.099-49.805-9.2969-16.159-6.4193-28.444-14.056-36.856-22.91m9.2969-255.66,0,205.2c-0.0001,3.5417,7.858,9.4076,23.574,17.598,15.716,7.9688,27.669,11.953,35.859,11.953,42.942,0.00004,73.711-10.293,92.305-30.879s27.89-55.117,27.891-103.59c-0.0003-40.286-10.847-71.718-32.539-94.297-21.693-22.578-50.912-33.867-87.656-33.867-7.7475,0.00031-18.594,3.3206-32.539,9.9609-13.724,6.6409-22.689,12.617-26.895,17.93"/>
  <path d="m2268.6,147.65,0,226.78c-0.0001,54.896,23.795,82.344,71.387,82.344,20.807,0.00004,39.844-5.9765,57.109-17.93,17.265-11.953,28.665-25.788,34.199-41.504v-249.69h63.086v355.61h-63.086v-49.141c-7.0836,13.945-21.361,26.784-42.832,38.516-21.25,11.51-42.057,17.266-62.422,17.266-38.958-0.00001-68.841-11.178-89.648-33.535-20.586-22.357-30.879-54.121-30.879-95.293v-233.42h63.086"/>
  <path d="m2780.7,208.41c-13.724-9.5179-27.559-14.277-41.504-14.277-22.357,0.00031-41.947,10.293-58.77,30.879-16.602,20.586-24.902,45.378-24.902,74.375v203.87h-63.086v-355.61h63.086v56.777c23.021-42.278,57.22-63.418,102.6-63.418,11.289,0.00036,27.558,1.9926,48.809,5.9766l-26.23,61.426"/>
  <path d="m2845.4,600.54,34.199-50.469c36.745,24.57,70.612,36.855,101.6,36.855,28.554-0.00009,51.022-4.9806,67.402-14.941,16.601-9.7396,24.902-21.914,24.902-36.523-0.0002-28.776-20.808-43.164-62.422-43.164-7.0835,0.00001-19.922,1.7708-38.516,5.3125s-33.093,5.3125-43.496,5.3125c-50.469,0-75.703-19.036-75.703-57.109,0-11.732,5.8658-22.357,17.598-31.875,11.953-9.5181,26.673-16.38,44.16-20.586-50.026-23.463-75.039-64.193-75.039-122.19-0.0001-37.187,12.949-68.177,38.848-92.969,25.898-24.791,57.884-37.187,95.957-37.188,34.974,0.00036,62.311,7.1944,82.012,21.582l31.543-37.852,41.172,38.848-37.852,28.555c16.159,21.029,24.238,48.477,24.238,82.344-0.0003,35.86-11.179,65.964-33.535,90.312-22.357,24.349-51.686,38.294-87.988,41.836l-52.129,5.3125c-6.1981,0.66415-14.499,3.099-24.902,7.3047-10.404,3.9844-15.606,9.297-15.605,15.938-0.0001,9.0756,10.846,13.613,32.539,13.613,9.5181,0.00005,24.349-1.6601,44.492-4.9805,20.143-3.5416,35.084-5.3124,44.824-5.3125,34.974,0.00006,62.2,8.4115,81.68,25.234,19.7,16.602,29.55,39.733,29.551,69.395-0.0003,32.76-14.72,59.212-44.16,79.355-29.219,20.143-66.296,30.215-111.23,30.215-23.021-0.00014-47.259-4.0952-72.715-12.285-25.456-8.1902-45.931-18.151-61.426-29.883m133.81-408.73c-21.914,0.00031-39.844,7.7477-53.789,23.242-13.724,15.495-20.586,34.31-20.586,56.445,0,24.792,6.6406,45.378,19.922,61.758,13.502,16.159,31.654,24.238,54.453,24.238,22.357,0.00015,39.844-7.8579,52.461-23.574,12.617-15.937,18.926-36.745,18.926-62.422-0.0003-22.135-6.8622-40.95-20.586-56.445-13.503-15.494-30.436-23.242-50.801-23.242"/>
  <path d="m3425.5,503.26,0-223.46c-0.0003-26.562-6.5302-47.48-19.59-62.754-13.06-15.273-31.432-22.91-55.117-22.91-15.274,0.00031-30.658,4.5381-46.152,13.613-15.274,8.8544-27.005,19.258-35.195,31.211v264.3h-63.086v-501.37h63.086v184.94c8.4113-13.06,21.914-23.906,40.508-32.539,18.815-8.8538,38.183-13.281,58.106-13.281,37.63,0.00036,67.07,12.396,88.32,37.188,21.471,24.792,32.207,58.659,32.207,101.6v223.46h-63.086"/>
  <path d="m3801.1,16.831,66.406,0,0,333.03c-0.0001,29.662,9.4074,54.121,28.223,73.379,18.815,19.037,43.717,28.555,74.707,28.555,32.76,0.00005,58.548-9.2968,77.363-27.891s28.222-43.828,28.223-75.703v-331.37h66.406v338.34c-0.0003,49.141-15.384,87.546-46.152,115.21-30.547,27.448-72.272,41.172-125.18,41.172-54.453-0.00001-96.4-13.503-125.84-40.508s-44.16-65.742-44.16-116.21v-338.01"/>
  <path d="m4462.6,503.26,0-206.86c-0.0002-37.851-5.7555-64.303-17.266-79.355-11.289-15.273-30.326-22.91-57.109-22.91-14.388,0.00031-29.44,4.3167-45.156,12.949-15.716,8.6331-27.78,19.258-36.191,31.875v264.3h-63.086v-355.61h43.164l19.922,45.82c20.807-34.974,54.785-52.461,101.93-52.461,77.916,0.00036,116.87,47.37,116.88,142.11v220.14h-63.086"/>
  <path d="m4687.4,13.179c10.846,0.00049,20.032,3.8742,27.559,11.621,7.7472,7.5265,11.621,16.602,11.621,27.227-0.0002,10.847-3.8739,20.144-11.621,27.891-7.5262,7.5265-16.712,11.289-27.559,11.289-10.625,0.000412-19.811-3.7626-27.559-11.289-7.5261-7.747-11.289-17.044-11.289-27.891-0.0001-10.846,3.763-20.032,11.289-27.559,7.5259-7.5256,16.712-11.289,27.559-11.289m-34.531,490.08,0-302.48-48.809,0,0-53.125,111.89,0,0,355.61-63.086,0"/>
  <path d="m4951,509.9-16.602,0-152.4-363.24,69.062,0,93.965,249.02,95.957-249.02,66.074,0-156.05,363.24"/>
  <path d="m5462.4,331.6-256.33,0c-0.0001,41.615,11.4,73.6,34.199,95.957,20.143,19.479,46.042,29.219,77.695,29.219,36.08,0.00004,66.185-10.514,90.312-31.543l26.562,45.488c-9.7399,9.7396-24.681,18.151-44.824,25.234-25.235,9.2969-53.347,13.945-84.336,13.945-44.714-0.00001-82.676-15.163-113.89-45.488-34.753-33.424-52.129-78.359-52.129-134.8,0-58.659,17.819-105.7,53.457-141.11,31.875-31.653,69.616-47.48,113.22-47.48,50.69,0.00036,90.423,14.278,119.2,42.832,27.89,27.448,41.836,63.861,41.836,109.24-0.0004,13.946-1.6605,26.784-4.9805,38.516m-153.2-137.47c-28.112,0.00031-51.686,9.0758-70.723,27.227-18.151,17.266-28.444,38.737-30.879,64.414h196.89c-0.0003-25.455-7.9691-46.705-23.906-63.75-17.487-18.593-41.283-27.89-71.387-27.891"/>
  <path d="m5733.4,208.41c-13.724-9.5179-27.559-14.277-41.504-14.277-22.357,0.00031-41.947,10.293-58.77,30.879-16.602,20.586-24.902,45.378-24.902,74.375v203.87h-63.086v-355.61h63.086v56.777c23.021-42.278,57.22-63.418,102.6-63.418,11.289,0.00036,27.558,1.9926,48.809,5.9766l-26.23,61.426"/>
  <path d="m5787.8,482.01,22.246-59.766c35.195,23.021,63.528,34.531,85,34.531,38.958,0.00004,58.437-16.38,58.438-49.141-0.0002-23.463-18.815-43.607-56.445-60.43-28.998-13.281-48.587-23.353-58.77-30.215-9.961-6.8618-18.704-14.609-26.23-23.242-7.3047-8.854-12.839-18.151-16.602-27.891-3.5417-9.9607-5.3125-20.586-5.3125-31.875,0-29.218,10.625-52.018,31.875-68.398s49.03-24.57,83.34-24.57c25.898,0.00036,58.548,8.1905,97.949,24.57l-17.93,58.438c-25.013-19.922-50.137-29.882-75.371-29.883-15.052,0.00031-27.78,3.542-38.184,10.625-10.182,7.0836-15.274,16.048-15.273,26.895-0.0001,22.8,12.949,40.065,38.848,51.797l45.156,20.586c27.669,12.617,47.812,27.005,60.43,43.164,12.617,16.159,18.926,36.413,18.926,60.762-0.0003,31.875-11.179,56.888-33.535,75.039-22.357,17.93-53.346,26.895-92.969,26.895-37.409-0.00001-72.604-9.2969-105.59-27.891"/>
  <path d="m6157.7,13.179c10.846,0.00049,20.032,3.8742,27.559,11.621,7.7473,7.5265,11.621,16.602,11.621,27.227-0.0001,10.847-3.8738,20.144-11.621,27.891-7.5262,7.5265-16.712,11.289-27.559,11.289-10.625,0.000412-19.811-3.7626-27.559-11.289-7.5261-7.747-11.289-17.044-11.289-27.891-0.0001-10.846,3.7629-20.032,11.289-27.559,7.526-7.5256,16.712-11.289,27.559-11.289m-34.531,490.08,0-302.48-48.809,0,0-53.125,111.89,0,0,355.61-63.086,0"/>
  <path d="m6315.8,197.46-41.172,0,0-49.805,41.172,0,0-74.375,63.086-24.238,0,98.613,97.617,0,0,49.805-97.617,0,0,176.64c-0.0001,29.883,4.9804,51.133,14.941,63.75,10.182,12.617,26.452,18.926,48.809,18.926,16.159,0.00004,32.871-4.095,50.137-12.285l9.2969,55.449c-26.12,6.6406-54.785,9.9609-85.996,9.9609-28.112-0.00001-51.908-10.404-71.387-31.211-19.258-21.029-28.887-47.48-28.887-79.355v-201.88"/>
  <path d="m6705.3,563.69c-8.1902,22.578-25.456,41.393-51.797,56.445-26.12,15.052-55.339,22.578-87.656,22.578v-56.445c26.341-0.00008,48.919-6.198,67.734-18.594,18.815-12.175,28.222-27.116,28.223-44.824-0.0001-19.479-3.4311-38.626-10.293-57.441-6.8621-19.036-15.716-42.5-26.562-70.391l-96.289-247.36h64.414l104.59,274.92,93.965-274.92h64.414l-150.74,416.04"/>
 </g>
 <g style="writing-mode:lr-tb;letter-spacing:2.76000071px;text-anchor:start;word-spacing:0px;text-align:start;" font-weight="normal" font-size="635px" font-stretch="normal" font-variant="normal" font-style="normal" font-family="Trebuchet MS" line-height="125%" fill="#FFF">
  <path d="m891.36,1284.3-57.773-312.44-106.25,319.08-16.602,0-109.24-319.08-56.445,312.44-63.086,0,90.977-486.43,30.215,0,115.88,354.94,106.91-354.94,29.883,0,98.613,486.43-63.086,0"/>
  <path d="m1064.8,928.65,0,226.78c-0.0001,54.896,23.796,82.344,71.387,82.344,20.807,0.0001,39.844-5.9765,57.109-17.93,17.265-11.953,28.665-25.788,34.199-41.504v-249.69h63.086v355.61h-63.086v-49.141c-7.0836,13.945-21.361,26.784-42.832,38.516-21.25,11.51-42.057,17.266-62.422,17.266-38.958,0-68.841-11.178-89.648-33.535-20.586-22.357-30.879-54.121-30.879-95.293v-233.42h63.086"/>
  <path d="m1356.4,1263,22.246-59.766c35.195,23.021,63.529,34.531,85,34.531,38.958,0.0001,58.437-16.38,58.438-49.141-0.0001-23.463-18.815-43.607-56.445-60.43-28.998-13.281-48.587-23.353-58.77-30.215-9.961-6.8618-18.704-14.609-26.23-23.242-7.3047-8.854-12.838-18.151-16.602-27.891-3.5417-9.9607-5.3126-20.586-5.3125-31.875-0.0001-29.218,10.625-52.018,31.875-68.398s49.03-24.57,83.34-24.57c25.898,0.00036,58.548,8.1904,97.949,24.57l-17.93,58.437c-25.013-19.922-50.137-29.882-75.371-29.883-15.052,0.0003-27.78,3.542-38.184,10.625-10.182,7.0836-15.274,16.048-15.274,26.894-0.0001,22.8,12.949,40.065,38.848,51.797l45.156,20.586c27.669,12.617,47.812,27.005,60.43,43.164,12.617,16.159,18.926,36.413,18.926,60.762-0.0003,31.875-11.179,56.888-33.535,75.039-22.357,17.93-53.346,26.894-92.969,26.894-37.409,0-72.604-9.2968-105.59-27.891"/>
  <path d="m1722.4,794.17c10.846,0.00049,20.032,3.8742,27.559,11.621,7.7473,7.5265,11.621,16.602,11.621,27.227-0.0001,10.847-3.8738,20.144-11.621,27.891-7.5261,7.5264-16.712,11.289-27.559,11.289-10.625,0.00041-19.811-3.7626-27.558-11.289-7.5262-7.747-11.289-17.044-11.289-27.891-0.0001-10.846,3.7629-20.032,11.289-27.559,7.5259-7.5256,16.712-11.289,27.558-11.289m-34.531,490.08,0-302.48-48.809,0,0-53.125,111.89,0,0,355.61-63.086,0"/>
  <path d="m2122.3,957.53-31.211,44.492c-6.4196-6.4189-17.819-12.506-34.199-18.262-16.159-5.7549-32.097-8.6325-47.812-8.6328-34.31,0.0003-61.537,12.064-81.68,36.191-20.143,23.906-30.215,56.778-30.215,98.613,0,41.615,10.293,73.379,30.879,95.293,20.586,21.693,49.14,32.539,85.664,32.539,28.333,0.0001,56.888-10.957,85.664-32.871l24.902,53.125c-33.868,21.914-75.814,32.871-125.84,32.871-48.477,0-88.542-16.27-120.2-48.809-31.654-32.539-47.48-76.588-47.48-132.15,0-56.666,16.38-102.15,49.141-136.46,32.982-34.31,78.027-51.464,135.14-51.465,18.372,0.00036,38.294,3.874,59.766,11.621,21.471,7.7477,37.298,15.716,47.48,23.906"/>
  <path d="m2384.5,1262,24.238-61.094c12.396,9.0756,27.78,16.712,46.152,22.91,18.594,5.9766,35.195,8.9649,49.805,8.9649,25.898,0,46.706-7.0833,62.422-21.25s23.574-32.207,23.574-54.121c-0.0002-16.38-4.4273-31.543-13.281-45.488-8.6331-14.166-30.547-29.551-65.742-46.152l-39.18-18.262c-33.203-15.494-56.445-33.867-69.727-55.117-13.06-21.25-19.59-46.816-19.59-76.699,0-36.302,12.838-66.406,38.516-90.312,25.677-23.906,58.659-35.859,98.945-35.859,53.789,0.00049,91.198,8.744,112.23,26.23l-19.59,57.773c-8.8544-6.4188-22.357-12.617-40.508-18.594-18.151-5.9761-34.974-8.9644-50.469-8.9648-22.578,0.00044-40.397,6.4197-53.457,19.258-12.839,12.839-19.258,29.33-19.258,49.473-0.0001,12.396,2.3242,23.685,6.9727,33.867,4.6483,10.183,11.068,18.705,19.258,25.566,8.4113,6.8623,25.456,16.491,51.133,28.887l39.844,18.926c33.203,15.716,56.445,34.532,69.726,56.445,13.502,21.693,20.254,49.362,20.254,83.008-0.0003,36.524-14.72,67.513-44.16,92.969-29.219,25.456-68.399,38.184-117.54,38.184-43.164,0-80.02-10.182-110.57-30.547"/>
  <path d="m2707.6,1105.6c-0.0001-54.896,14.72-99.166,44.16-132.81,29.661-33.867,68.62-50.8,116.88-50.801,50.911,0.00036,90.423,16.27,118.54,48.809,28.112,32.318,42.168,77.253,42.168,134.8-0.0004,57.331-14.388,102.6-43.164,135.8-28.776,32.982-67.956,49.473-117.54,49.473-50.69,0-90.202-16.712-118.54-50.137-28.333-33.424-42.5-78.47-42.5-135.14m66.406,0c-0.0001,89.206,31.543,133.81,94.629,133.81,29.44,0,52.461-11.953,69.062-35.859,16.823-23.906,25.234-56.556,25.234-97.949-0.0003-88.099-31.432-132.15-94.297-132.15-28.776,0.00031-51.797,11.732-69.062,35.195-17.044,23.464-25.566,55.781-25.566,96.953"/>
  <path d="m3367.1,957.53-31.211,44.492c-6.4196-6.4189-17.819-12.506-34.199-18.262-16.159-5.7549-32.096-8.6325-47.812-8.6328-34.31,0.0003-61.537,12.064-81.68,36.191-20.143,23.906-30.215,56.778-30.215,98.613-0.0001,41.615,10.293,73.379,30.879,95.293,20.586,21.693,49.14,32.539,85.664,32.539,28.333,0.0001,56.888-10.957,85.664-32.871l24.902,53.125c-33.868,21.914-75.814,32.871-125.84,32.871-48.477,0-88.542-16.27-120.2-48.809-31.654-32.539-47.48-76.588-47.48-132.15-0.0001-56.666,16.38-102.15,49.141-136.46,32.982-34.31,78.027-51.464,135.14-51.465,18.372,0.00036,38.294,3.874,59.766,11.621,21.471,7.7477,37.298,15.716,47.48,23.906"/>
  <path d="m3504,794.17c10.846,0.00049,20.032,3.8742,27.559,11.621,7.7473,7.5265,11.621,16.602,11.621,27.227-0.0001,10.847-3.8738,20.144-11.621,27.891-7.5262,7.5264-16.712,11.289-27.559,11.289-10.625,0.00041-19.811-3.7626-27.559-11.289-7.5261-7.747-11.289-17.044-11.289-27.891-0.0001-10.846,3.7629-20.032,11.289-27.559,7.526-7.5256,16.712-11.289,27.559-11.289m-34.531,490.08,0-302.48-48.809,0,0-53.125,111.89,0,0,355.61-63.086,0"/>
  <path d="m3935.1,1112.6-256.33,0c-0.0001,41.615,11.4,73.6,34.199,95.957,20.143,19.479,46.042,29.219,77.695,29.219,36.08,0.0001,66.185-10.514,90.312-31.543l26.562,45.488c-9.7399,9.7397-24.681,18.151-44.824,25.234-25.235,9.2969-53.346,13.945-84.336,13.945-44.714,0-82.676-15.163-113.89-45.488-34.753-33.424-52.129-78.359-52.129-134.8,0-58.659,17.819-105.7,53.457-141.11,31.875-31.653,69.616-47.48,113.22-47.48,50.69,0.00036,90.423,14.278,119.2,42.832,27.89,27.448,41.836,63.861,41.836,109.24-0.0003,13.946-1.6605,26.784-4.9805,38.516m-153.1-137.47c-28.112,0.0003-51.686,9.0758-70.723,27.227-18.151,17.266-28.444,38.737-30.879,64.414h196.89c-0.0003-25.455-7.969-46.705-23.906-63.75-17.487-18.593-41.283-27.89-71.387-27.891"/>
  <path d="m4031.5,978.45-41.172,0,0-49.805,41.172,0,0-74.375,63.086-24.238,0,98.613,97.617,0,0,49.805-97.617,0,0,176.64c-0.0001,29.883,4.9803,51.133,14.941,63.75,10.182,12.617,26.452,18.926,48.809,18.926,16.159,0.0001,32.871-4.095,50.137-12.285l9.2969,55.449c-26.12,6.6406-54.785,9.9609-85.996,9.9609-28.112,0-51.908-10.404-71.387-31.211-19.258-21.029-28.887-47.48-28.887-79.356v-201.87"/>
  <path d="m4417.1,1344.7c-8.1903,22.578-25.456,41.393-51.797,56.445-26.12,15.052-55.339,22.578-87.656,22.578v-56.445c26.341-0.0001,48.919-6.198,67.734-18.594,18.815-12.175,28.222-27.116,28.223-44.824-0.0001-19.479-3.4311-38.626-10.293-57.442-6.8621-19.036-15.716-42.5-26.562-70.391l-96.289-247.36h64.414l104.59,274.92,93.965-274.92h64.414l-150.74,416.04"/>
 </g>
</svg>
